<svg width="24" height="24" viewBox="0 0 24 24" fill="none" xmlns="http://www.w3.org/2000/svg">
  <path d="M12 14.5C10.34 14.5 9 13.16 9 11.5V5.5C9 3.84 10.34 2.5 12 2.5C13.66 2.5 15 3.84 15 5.5V11.5C15 13.16 13.66 14.5 12 14.5Z" fill="#111111"/>
  <path d="M17.75 10.5C17.75 13.42 15.47 15.82 12.62 16.02V19H15.25C15.66 19 16 19.34 16 19.75C16 20.16 15.66 20.5 15.25 20.5H8.75C8.34 20.5 8 20.16 8 19.75C8 19.34 8.34 19 8.75 19H11.12V16.02C8.27 15.82 6 13.42 6 10.5C6 10.09 6.34 9.75 6.75 9.75C7.16 9.75 7.5 10.09 7.5 10.5C7.5 12.99 9.51 15 12 15C14.49 15 16.25 12.99 16.25 10.5C16.25 10.09 16.59 9.75 17 9.75C17.41 9.75 17.75 10.09 17.75 10.5Z" fill="#111111"/>
</svg>
