<svg width="24" height="24" viewBox="0 0 24 24" fill="none" xmlns="http://www.w3.org/2000/svg">
  <path fill-rule="evenodd" clip-rule="evenodd" d="M4 6.5C3.17 6.5 2.5 7.17 2.5 8V16C2.5 16.83 3.17 17.5 4 17.5H20C20.83 17.5 21.5 16.83 21.5 16V8C21.5 7.17 20.83 6.5 20 6.5H4ZM4 8H20V16H4V8Z" fill="#111111"/>
  <path d="M6 9.5H7.5V11H6V9.5ZM8.75 9.5H10.25V11H8.75V9.5ZM11.5 9.5H13V11H11.5V9.5ZM14.25 9.5H15.75V11H14.25V9.5ZM17 9.5H18.5V11H17V9.5ZM6 12.5H7.5V14H6V12.5ZM8.75 12.5H15.25V14H8.75V12.5ZM16.5 12.5H18.5V14H16.5V12.5Z" fill="#111111"/>
</svg>
