<svg xmlns="http://www.w3.org/2000/svg" width="220" height="220" viewBox="0 0 220 220">
  <defs>
    <linearGradient id="haDots" x1="0" y1="0" x2="220" y2="220" gradientUnits="userSpaceOnUse">
      <stop offset="0" stop-color="#1E9F65"/>
      <stop offset="0.52" stop-color="#18BCF2"/>
      <stop offset="1" stop-color="#FFD502"/>
    </linearGradient>
  </defs>
  <g fill="url(#haDots)" opacity="0.9">
    <circle cx="110" cy="4.5" r="4.5"/><circle cx="136.1" cy="6.9" r="4.5"/><circle cx="160.5" cy="16.4" r="4.5"/><circle cx="181.4" cy="32.2" r="4.5"/><circle cx="197.5" cy="55" r="4.5"/><circle cx="210.7" cy="81.5" r="4.5"/><circle cx="215.5" cy="110" r="4.5"/><circle cx="210.7" cy="138.5" r="4.5"/><circle cx="197.5" cy="165" r="4.5"/><circle cx="181.4" cy="187.8" r="4.5"/><circle cx="160.5" cy="203.6" r="4.5"/><circle cx="136.1" cy="213.1" r="4.5"/><circle cx="110" cy="215.5" r="4.5"/><circle cx="83.9" cy="213.1" r="4.5"/><circle cx="59.5" cy="203.6" r="4.5"/><circle cx="38.6" cy="187.8" r="4.5"/><circle cx="22.5" cy="165" r="4.5"/><circle cx="9.3" cy="138.5" r="4.5"/><circle cx="4.5" cy="110" r="4.5"/><circle cx="9.3" cy="81.5" r="4.5"/><circle cx="22.5" cy="55" r="4.5"/><circle cx="38.6" cy="32.2" r="4.5"/><circle cx="59.5" cy="16.4" r="4.5"/><circle cx="83.9" cy="6.9" r="4.5"/>
    <circle cx="110" cy="28.2" r="3.4"/><circle cx="130.3" cy="30.1" r="3.4"/><circle cx="149.2" cy="37.5" r="3.4"/><circle cx="165.4" cy="49.8" r="3.4"/><circle cx="177.9" cy="67.4" r="3.4"/><circle cx="188.1" cy="88" r="3.4"/><circle cx="191.8" cy="110" r="3.4"/><circle cx="188.1" cy="132.1" r="3.4"/><circle cx="177.9" cy="152.6" r="3.4"/><circle cx="165.4" cy="170.2" r="3.4"/><circle cx="149.2" cy="182.5" r="3.4"/><circle cx="130.3" cy="189.9" r="3.4"/><circle cx="110" cy="191.8" r="3.4"/><circle cx="89.7" cy="189.9" r="3.4"/><circle cx="70.8" cy="182.5" r="3.4"/><circle cx="54.6" cy="170.2" r="3.4"/><circle cx="42.1" cy="152.6" r="3.4"/><circle cx="31.9" cy="132.1" r="3.4"/><circle cx="28.2" cy="110" r="3.4"/><circle cx="31.9" cy="88" r="3.4"/><circle cx="42.1" cy="67.4" r="3.4"/><circle cx="54.6" cy="49.8" r="3.4"/><circle cx="70.8" cy="37.5" r="3.4"/><circle cx="89.7" cy="30.1" r="3.4"/>
    <circle cx="110" cy="52" r="2.3"/><circle cx="124.4" cy="53.3" r="2.3"/><circle cx="137.9" cy="58.6" r="2.3"/><circle cx="149.2" cy="67.4" r="2.3"/><circle cx="157.9" cy="79.8" r="2.3"/><circle cx="164.5" cy="94.5" r="2.3"/><circle cx="166.9" cy="110" r="2.3"/><circle cx="164.5" cy="125.5" r="2.3"/><circle cx="157.9" cy="140.2" r="2.3"/><circle cx="149.2" cy="152.6" r="2.3"/><circle cx="137.9" cy="161.4" r="2.3"/><circle cx="124.4" cy="166.7" r="2.3"/><circle cx="110" cy="168" r="2.3"/><circle cx="95.6" cy="166.7" r="2.3"/><circle cx="82.1" cy="161.4" r="2.3"/><circle cx="70.8" cy="152.6" r="2.3"/><circle cx="62.1" cy="140.2" r="2.3"/><circle cx="55.5" cy="125.5" r="2.3"/><circle cx="53.1" cy="110" r="2.3"/><circle cx="55.5" cy="94.5" r="2.3"/><circle cx="62.1" cy="79.8" r="2.3"/><circle cx="70.8" cy="67.4" r="2.3"/><circle cx="82.1" cy="58.6" r="2.3"/><circle cx="95.6" cy="53.3" r="2.3"/>
  </g>
</svg>
