<svg width="24" height="24" viewBox="0 0 24 24" fill="none" xmlns="http://www.w3.org/2000/svg">
  <path d="M12 22C6.48 22 2 17.52 2 12S6.48 2 12 2s10 4.48 10 10-4.48 10-10 10Zm0-2c4.42 0 8-3.58 8-8s-3.58-8-8-8-8 3.58-8 8 3.58 8 8 8Zm-1-5.8c0-1.7.94-2.46 2.02-3.17.96-.63 1.73-1.13 1.73-2.18 0-1.24-1.02-2.05-2.55-2.05-1.35 0-2.42.58-3.28 1.68L7.55 7.22C8.65 5.77 10.24 5 12.28 5c2.67 0 4.62 1.5 4.62 3.78 0 1.96-1.19 2.85-2.35 3.6-1.02.67-1.55 1.08-1.55 2.02v.35h-2v-.55Zm.98 4.05c-.78 0-1.38-.57-1.38-1.32 0-.76.6-1.33 1.38-1.33.8 0 1.4.57 1.4 1.33 0 .75-.6 1.32-1.4 1.32Z" fill="#7A7A7A"/>
</svg>
